<?xml version="1.0" encoding="utf-8"?>
<!-- Generator: Adobe Illustrator 25.3.1, SVG Export Plug-In . SVG Version: 6.00 Build 0)  -->
<svg version="1.1" id="Layer_1" xmlns="http://www.w3.org/2000/svg" xmlns:xlink="http://www.w3.org/1999/xlink" x="0px" y="0px"
	 viewBox="0 0 150 150" style="enable-background:new 0 0 150 150;" xml:space="preserve">
<style type="text/css">
	.st0{display:none;}
	.st1{display:inline;fill:#FF94B3;}
	.st2{fill:none;stroke:#231F20;stroke-width:1.9998;stroke-miterlimit:9.9994;}
	.st3{fill:none;stroke:#231F20;stroke-width:2;stroke-miterlimit:10.0002;}
	.st4{fill:#66CCC2;stroke:#231F20;stroke-width:2;stroke-miterlimit:10;}
</style>
<g id="Layer_2_1_" class="st0">
	<rect x="0.5" y="0.5" class="st1" width="150" height="149"/>
</g>
<ellipse transform="matrix(0.8958 -0.4444 0.4444 0.8958 -22.0869 35.3744)" class="st2" cx="64.4" cy="64.8" rx="15.7" ry="43.7"/>
<ellipse transform="matrix(0.6594 -0.7518 0.7518 0.6594 -26.0424 72.063)" class="st3" cx="66.5" cy="64.8" rx="44.3" ry="15.7"/>
<ellipse transform="matrix(0.6594 -0.7518 0.7518 0.6594 -28.049 76.5118)" class="st3" cx="70.4" cy="69.2" rx="44.3" ry="15.7"/>
<ellipse transform="matrix(0.8958 -0.4444 0.4444 0.8958 -20.6722 37.8002)" class="st2" cx="70.3" cy="63" rx="15.7" ry="43.7"/>
<polygon class="st4" points="54.6,64.3 64.7,52.8 70.8,47.5 73.8,52.1 81.7,68.3 66.7,85.3 "/>
<path class="st4" d="M49.8,26.1c0,0-6.9,7.8,1.9,29.9l15.1-15C66.8,41.1,57.2,27.5,49.8,26.1z"/>
<path class="st4" d="M71.4,91.2l13.7-14c0,0,5.8,19.5,0.7,23.7c-0.2,0.1-0.4,0.3-0.6,0.4C79.3,104.6,71.4,91.2,71.4,91.2z"/>
<path class="st4" d="M77.6,41.9l9.7,18.9c0,0,11.5-15.3,9.2-25C96.6,35.9,94.2,32.3,77.6,41.9z"/>
<path class="st4" d="M49.3,72.3L60.8,90c0,0-11.1,10.5-20.8,8.5C39.9,98.4,35.7,94,49.3,72.3z"/>
</svg>
