<?xml version="1.0" encoding="utf-8"?>
<!-- Generator: Adobe Illustrator 25.3.1, SVG Export Plug-In . SVG Version: 6.00 Build 0)  -->
<svg version="1.1" id="Layer_1" xmlns="http://www.w3.org/2000/svg" xmlns:xlink="http://www.w3.org/1999/xlink" x="0px" y="0px"
	 viewBox="0 0 150 150" style="enable-background:new 0 0 150 150;" xml:space="preserve">
<style type="text/css">
	.st0{display:none;}
	.st1{display:inline;fill:#D81958;}
	.st2{fill:#153368;stroke:#231F20;stroke-width:3;stroke-miterlimit:10;}
	.st3{fill:#13541E;stroke:#231F20;stroke-width:3;stroke-linecap:round;stroke-linejoin:round;stroke-miterlimit:10;}
	.st4{fill:#006294;stroke:#231F20;stroke-width:3;stroke-miterlimit:10;}
	.st5{fill:none;stroke:#231F20;stroke-width:3;stroke-miterlimit:10;}
	.st6{fill:#13541E;stroke:#231F20;stroke-width:3;stroke-miterlimit:10;}
</style>
<g id="Layer_2_1_" class="st0">
	<rect x="0.5" y="0.5" class="st1" width="150" height="149"/>
</g>
<g id="Layer_1_1_">
	<g>
		<path class="st2" d="M125.7,79.8c0.1-1.3,0.2-2.6,0.2-4.1c0-3.3-0.3-6.7-0.9-9.9C125.9,71.3,125.9,76.1,125.7,79.8z"/>
		<path class="st2" d="M107.2,82.1c-1.1-4.7-3.2-8.9,0-11.8s4.9-6.1,1.4-9.6c-3.5-3.5,0.3-10.3,3.5-11.8c3.1-1.4,5.7-1.5,5.8-1.5
			c-4.7-7.8-11.3-14.3-19.1-18.9c5.5,3.5-7.1,7.2-7.1,7.2s-4.2,1.1-11.6-2.4s-8,2-8,2s-2.9,4.7-12,5.7s-8.6-15.5-8.6-15.6
			C32,33.7,18.3,53.2,18.3,75.9c0,30.1,24.1,54.4,53.7,54.4c25.7,0,47.2-18.2,52.5-42.8C124.3,87.5,108.2,86.7,107.2,82.1z
			 M98.4,73.5c0,0-9.2,10.7-10.9,14.6s0,15.3,0,15.3s-6.7,11.8-12.7,11.8s-9.5-9.3-9.5-9.3s-0.7-11.1-1.8-14.6
			c-1.1-3.5-8.1-7.1-11.3-12.5c-3.2-5.4,3.9-19.7,3.9-19.7s6.7-11.8,13.7-3.5s12.1,7.1,12.1,7.1s8.7-2.1,13.3,0
			C99.8,65,98.4,73.5,98.4,73.5z"/>
		<path class="st2" d="M125.5,81.7c0-0.4,0.1-0.7,0.1-1.1C125.6,81,125.5,81.3,125.5,81.7z"/>
	</g>
	<path class="st3" d="M19,83.8c0,0,3.8-0.5,9.8,0s4.6,3.4,7,5.8s2.1,5.6,2.1,11.3s4.6,0.7,8.1,8.1c3.5,7.4-4.8,10.6-4.8,10.6
		S22.1,107.1,19,83.8z"/>
	<path class="st4" d="M186.8,58.5"/>
	<ellipse class="st5" cx="72.3" cy="76" rx="53.5" ry="54.5"/>
	<path class="st6" d="M51.5,25.5l0.8,7.1l0.9,3.9l1.4,1.9l2.1,1.8l3.4,0.9l4.2-0.5l3.7-1.4l4.1-3.8l2.1-2.1l5.9,0.1l3.2,1.4l4.6,0.4
		l9-1.9l2.7-3.4C99.6,29.8,79.8,15.3,51.5,25.5z"/>
	<path class="st6" d="M57.8,57.2l-5.1,11.9l0.2,7.6l4.1,5.8l4.6,5.1l3.5,3.4l0.5,8l1.1,8.7l6.7,6.6l6.4-3.2l6.6-7.8l1.2-15.2
		l5.9-10.5l5-4.1l-1.3-6.9c0,0-0.7-3.2-12-4.3c-11.3-1.1-15.2-6.8-15.2-6.8S64,51.6,57.8,57.2z"/>
	<path class="st6" d="M124,85.9l-13.6-1.4c0,0-5.8-7.6-1.8-13.5c0,0,5-6.7,2.8-9.6c0,0-9.7-7.6,6-12.8
		C117.5,48.7,126.3,63.6,124,85.9z"/>
	<path class="st6" d="M124.5,87.5"/>
</g>
</svg>
