<?xml version="1.0" encoding="utf-8"?>
<!-- Generator: Adobe Illustrator 25.3.1, SVG Export Plug-In . SVG Version: 6.00 Build 0)  -->
<svg version="1.1" id="Layer_1" xmlns="http://www.w3.org/2000/svg" xmlns:xlink="http://www.w3.org/1999/xlink" x="0px" y="0px"
	 viewBox="0 0 150 150" style="enable-background:new 0 0 150 150;" xml:space="preserve">
<style type="text/css">
	.st0{display:none;}
	.st1{display:inline;fill:#D81958;}
	.st2{fill:none;stroke:#000000;stroke-width:3;stroke-miterlimit:10;}
	.st3{fill:#176268;}
	.st4{fill:#61E5D8;stroke:#000000;stroke-width:3;stroke-miterlimit:10;}
	.st5{fill:none;stroke:#000000;stroke-width:3;stroke-linecap:round;stroke-miterlimit:10;}
</style>
<g id="Layer_2_1_" class="st0">
	<rect x="0.5" y="0.5" class="st1" width="150" height="149"/>
</g>
<g id="Layer_1_1_">
	<path class="st2" d="M129.4,50.5C155.5,121.8,57,160.4,26.3,94.3C0.2,23.1,98.6-15.6,129.4,50.5z"/>
	<path class="st3" d="M124,53c23.3,63.6-64.5,98-92,39C8.8,28.5,96.6-6,124,53z"/>
	<path class="st4" d="M107.2,24.2c39.1-28.6,70,7.2-11.8,66.4c-112.7,82.6-102.8,11.6-71.8-3.1L28,98.4c0,0-10.3,6.9-4.4,13.2
		c7.4,7.9,109.5-61.2,105.8-78.9c-2.9-7.8-12.4-0.3-12.4-0.3L107.2,24.2z"/>
	<path class="st5" d="M76.1,75.9c0,0-29.3,22.8-45,26.8"/>
	<path class="st5" d="M58.5,80.3c0,0-18.2,12.9-30.9,16.6"/>
	<path class="st5" d="M44.5,81.4c0,0-11,7.2-19.5,9"/>
</g>
</svg>
