<?xml version="1.0" encoding="utf-8"?>
<!-- Generator: Adobe Illustrator 25.3.1, SVG Export Plug-In . SVG Version: 6.00 Build 0)  -->
<svg version="1.1" id="Layer_1" xmlns="http://www.w3.org/2000/svg" xmlns:xlink="http://www.w3.org/1999/xlink" x="0px" y="0px"
	 viewBox="0 0 150 150" style="enable-background:new 0 0 150 150;" xml:space="preserve">
<style type="text/css">
	.st0{display:none;}
	.st1{display:inline;fill:#FF0055;}
	.st2{fill:#3F0A0A;stroke:#231F20;stroke-width:3;stroke-miterlimit:10.0001;}
	.st3{fill:#7F2D2D;stroke:#231F20;stroke-miterlimit:10.0001;}
	.st4{fill:#C46969;stroke:#231F20;stroke-width:3;stroke-miterlimit:10.0001;}
</style>
<g id="Layer_2_1_" class="st0">
	<rect x="-2.4" y="-0.8" class="st1" width="150" height="150"/>
</g>
<polygon class="st2" points="137.1,112.4 91,106.6 60.1,141.3 51.3,95.7 8.8,77 49.5,54.6 54.1,8.4 88,40.1 133.4,30.2 113.7,72.3 
	"/>
<polygon class="st3" points="111,97.4 83.7,93.1 64.7,113.1 60.3,85.8 35.4,73.9 60,61.4 63.7,34 83.2,53.5 110.4,48.5 97.8,73.1 
	"/>
<polygon class="st4" points="89.9,79.5 80.6,78.5 74.4,85.5 72.6,76.3 64,72.7 72.1,68.1 72.9,58.8 79.8,65.1 88.9,63 85.1,71.5 "/>
</svg>
